# xmcd CD database file
#
# Track frame offsets:
#	150
#	15379
#	34891
#	53518
#	71656
#	89205
#	107068
#	131086
#	146614
#	161626
#	184439
#	202672
#
# Disc length: 3056 seconds
#
# Revision: 0
# Processed by: cddbd v1.5.2PL0 Copyright (c) Steve Scherf et al.
# Submitted via: CDex 1.51
#
DISCID=a90bee0c
DTITLE=Heavy - Jazz Money $$
DYEAR=2007
DGENRE=Jazz
TTITLE0=Venomous
TTITLE1=P.r.i.tt.y Boy
TTITLE2=Jokes On You
TTITLE3=Countdown
TTITLE4=City Girl
TTITLE5=Mylittlesong
TTITLE6=SAM/SAM's Return
TTITLE7=Longtime
TTITLE8=Second Chance
TTITLE9=Sqre One
TTITLE10=RAZZmaTAZZ
TTITLE11=Don'tsayg'night
EXTD=YEAR: 2007
EXTT0=
EXTT1=
EXTT2=
EXTT3=
EXTT4=
EXTT5=
EXTT6=
EXTT7=
EXTT8=
EXTT9=
EXTT10=
EXTT11=
PLAYORDER=
